<svg width="141" height="154" viewBox="0 0 141 154" fill="none" xmlns="http://www.w3.org/2000/svg">
<rect y="3" width="100" height="100" rx="10" fill="#C3413D"/>
<g filter="url(#filter0_d)">
<path d="M45.9314 34.8224V23.8021L43.2187 24.7346L45.8466 19.1397C45.8466 19.1397 43.1339 17.529 40.7603 19.1397L37.1152 27.0234L29.2314 30.0752L45.9314 34.8224Z" fill="#FAFAFA"/>
<path d="M43.4734 17.5291C43.8973 17.5291 44.3211 17.6139 44.745 17.6986L55.511 20.6656C56.5282 20.9199 57.2912 21.7677 57.5455 22.8697L59.8343 34.3986L65.0901 32.3641L62.547 19.9027C62.2927 18.8007 61.5297 17.9529 60.4277 17.6986L48.6445 14.9012C48.3054 14.8164 47.9663 14.8164 47.6272 14.8164C47.1186 14.8164 46.6947 14.9012 46.1861 15.0707L42.88 16.2575C41.8628 16.5118 41.0998 17.3595 40.7607 18.3768C40.7607 18.3768 40.9303 18.2073 41.2694 18.0377C41.9475 17.6986 42.7105 17.5291 43.4734 17.5291Z" fill="#FAFAFA"/>
<path d="M25.5859 82.1248L53.1366 91.1105V39.0609L29.2311 32.0249L25.5859 82.1248ZM30.757 79.6664C29.9093 79.6664 29.2311 78.9034 29.2311 77.8862C29.2311 76.8689 29.9093 76.106 30.757 76.106C31.6047 76.106 32.2829 76.8689 32.2829 77.8862C32.2829 78.9034 31.6047 79.6664 30.757 79.6664ZM35.0803 63.9837C34.2326 63.9837 33.5544 63.2208 33.5544 62.2035C33.5544 61.1862 34.2326 60.4233 35.0803 60.4233C35.928 60.4233 36.6062 61.1862 36.6062 62.2035C36.6062 63.136 35.928 63.9837 35.0803 63.9837ZM38.5559 82.2095C37.7082 82.2095 37.0301 81.4466 37.0301 80.4293C37.0301 79.4121 37.7082 78.6491 38.5559 78.6491C39.4037 78.6491 40.0818 79.4121 40.0818 80.4293C40.0818 81.4466 39.4037 82.2095 38.5559 82.2095ZM43.5575 66.6116C42.7097 66.6116 42.0316 65.8487 42.0316 64.8314C42.0316 63.8142 42.7097 63.0512 43.5575 63.0512C44.4052 63.0512 45.0833 63.8142 45.0833 64.8314C45.0833 65.8487 44.4052 66.6116 43.5575 66.6116ZM48.1351 43.1299C48.9828 43.1299 49.661 43.8929 49.661 44.9101C49.661 45.9274 48.9828 46.6903 48.1351 46.6903C47.2874 46.6903 46.6092 45.9274 46.6092 44.9101C46.6092 43.8929 47.2874 43.1299 48.1351 43.1299ZM48.1351 57.4563C48.9828 57.4563 49.661 58.2192 49.661 59.2365C49.661 60.2538 48.9828 61.0167 48.1351 61.0167C47.2874 61.0167 46.6092 60.2538 46.6092 59.2365C46.6092 58.304 47.2874 57.4563 48.1351 57.4563ZM48.1351 72.5456C48.9828 72.5456 49.661 73.3085 49.661 74.3258C49.661 75.343 48.9828 76.106 48.1351 76.106C47.2874 76.106 46.6092 75.343 46.6092 74.3258C46.6092 73.3085 47.2874 72.5456 48.1351 72.5456ZM47.3722 81.6161C48.2199 81.6161 48.898 82.3791 48.898 83.3963C48.898 84.4136 48.2199 85.1765 47.3722 85.1765C46.5245 85.1765 45.8463 84.4136 45.8463 83.3963C45.8463 82.3791 46.5245 81.6161 47.3722 81.6161ZM45.0833 49.8269C45.0833 50.8441 44.4052 51.6071 43.5575 51.6071C42.7097 51.6071 42.0316 50.8441 42.0316 49.8269C42.0316 48.8096 42.7097 48.0467 43.5575 48.0467C44.4052 48.0467 45.0833 48.8944 45.0833 49.8269ZM41.2686 40.9259C42.1163 40.9259 42.7945 41.6888 42.7945 42.7061C42.7945 43.7233 42.1163 44.4863 41.2686 44.4863C40.4209 44.4863 39.7427 43.7233 39.7427 42.7061C39.7427 41.6888 40.4209 40.9259 41.2686 40.9259ZM40.0818 54.9132C40.9295 54.9132 41.6077 55.6761 41.6077 56.6934C41.6077 57.7106 40.9295 58.4736 40.0818 58.4736C39.2341 58.4736 38.5559 57.7106 38.5559 56.6934C38.5559 55.6761 39.2341 54.9132 40.0818 54.9132ZM39.3189 69.8329C40.1666 69.8329 40.8448 70.5959 40.8448 71.6131C40.8448 72.6304 40.1666 73.3933 39.3189 73.3933C38.4712 73.3933 37.793 72.6304 37.793 71.6131C37.793 70.6806 38.5559 69.8329 39.3189 69.8329ZM38.1321 48.0467C38.1321 49.0639 37.4539 49.8269 36.6062 49.8269C35.7585 49.8269 35.0803 49.0639 35.0803 48.0467C35.0803 47.0294 35.7585 46.2665 36.6062 46.2665C37.4539 46.2665 38.1321 47.1142 38.1321 48.0467ZM34.3174 39.1457C35.1651 39.1457 35.8433 39.9086 35.8433 40.9259C35.8433 41.9431 35.1651 42.7061 34.3174 42.7061C33.4697 42.7061 32.7915 41.9431 32.7915 40.9259C32.7915 39.9934 33.4697 39.1457 34.3174 39.1457ZM32.4524 52.5396C33.3001 52.5396 33.9783 53.3025 33.9783 54.3198C33.9783 55.337 33.3001 56.1 32.4524 56.1C31.6047 56.1 30.9265 55.337 30.9265 54.3198C30.9265 53.3025 31.6047 52.5396 32.4524 52.5396ZM30.9265 67.5441C31.7742 67.5441 32.4524 68.307 32.4524 69.3243C32.4524 70.3415 31.7742 71.1045 30.9265 71.1045C30.0788 71.1045 29.4006 70.3415 29.4006 69.3243C29.4006 68.307 30.0788 67.5441 30.9265 67.5441Z" fill="#FAFAFA"/>
<path d="M71.6163 32.0249L55.0859 38.8914V91.1105L74.4138 79.4968L71.6163 32.0249ZM69.158 47.199C69.158 47.199 70.3448 47.0294 70.4295 48.8944V49.7421C70.4295 49.8269 70.3448 49.9117 70.26 49.9964L68.1407 50.8441C67.9712 50.9289 67.8016 50.7594 67.8016 50.5898V49.5726C67.8016 49.6573 67.5473 47.2837 69.158 47.199ZM64.6651 49.0639C64.6651 49.0639 65.8519 48.8944 65.9367 50.7594V51.6071C65.9367 51.6919 65.8519 51.7766 65.7671 51.8614L63.6478 52.7091C63.4783 52.7939 63.3088 52.6243 63.3088 52.4548V51.4375C63.3088 51.5223 63.0544 49.1487 64.6651 49.0639ZM59.8331 51.6919C59.8331 51.6919 61.0199 51.5223 61.1047 53.3873V54.235C61.1047 54.3198 61.0199 54.4045 60.9352 54.4893L58.8159 55.337C58.6463 55.4218 58.4768 55.2522 58.4768 55.0827V54.0654C58.5616 54.0654 58.2225 51.7766 59.8331 51.6919ZM58.392 46.9447V45.9274C58.392 45.9274 58.0529 43.6386 59.7484 43.469C59.7484 43.469 60.9352 43.2995 61.0199 45.1645V46.0122C61.0199 46.0969 60.9352 46.1817 60.8504 46.2665L58.7311 47.1142C58.5616 47.199 58.392 47.1142 58.392 46.9447ZM58.5616 72.7151V71.6979C58.5616 71.6979 58.2225 69.4091 59.9179 69.2395C59.9179 69.2395 61.1047 69.07 61.1895 70.9349V71.7827C61.1895 71.8674 61.1047 71.9522 61.0199 72.037L58.9006 72.8847C58.7311 73.0542 58.5616 72.8847 58.5616 72.7151ZM61.2742 81.3618C61.2742 81.4466 61.1895 81.5314 61.1047 81.6161L58.9854 82.4638C58.8159 82.5486 58.6463 82.3791 58.6463 82.2095V81.1923C58.6463 81.1923 58.3072 78.9034 60.0027 78.7339C60.0027 78.7339 61.1895 78.5644 61.2742 80.4293V81.3618ZM61.2742 63.136C61.2742 63.2208 61.1895 63.3055 61.1047 63.3903L58.9854 64.238C58.8159 64.3228 58.6463 64.1532 58.6463 63.9837V62.9664C58.6463 62.9664 58.3072 60.6776 60.0027 60.5081C60.0027 60.5081 61.1895 60.3385 61.2742 62.2035V63.136ZM63.224 44.3167V43.2995C63.224 43.2995 62.8849 41.0107 64.5803 40.8411C64.5803 40.8411 65.7671 40.6716 65.8519 42.5365V43.3843C65.8519 43.469 65.7671 43.5538 65.6824 43.6386L63.5631 44.4863C63.3935 44.6558 63.224 44.4863 63.224 44.3167ZM63.3088 70.0872V69.07C63.3088 69.07 62.9697 66.7811 64.6651 66.6116C64.6651 66.6116 65.8519 66.4421 65.9367 68.307V69.1547C65.9367 69.2395 65.8519 69.3243 65.7671 69.4091L63.6478 70.2568C63.4783 70.4263 63.3088 70.3415 63.3088 70.0872ZM66.1062 78.2253C66.1062 78.3101 66.0214 78.3948 65.9367 78.4796L63.8174 79.3273C63.6478 79.4121 63.4783 79.2425 63.4783 79.073V78.0557C63.4783 78.0557 63.1392 75.7669 64.8346 75.5974C64.8346 75.5974 66.0214 75.4278 66.1062 77.2928V78.2253V78.2253ZM66.1062 60.5081C66.1062 60.5928 66.0214 60.6776 65.9367 60.7624L63.8174 61.6101C63.6478 61.6949 63.4783 61.5253 63.4783 61.3558V60.3385C63.4783 60.3385 63.1392 58.0497 64.8346 57.8802C64.8346 57.8802 66.0214 57.7106 66.1062 59.5756V60.5081V60.5081ZM67.6321 42.4518V41.4345C67.6321 41.4345 67.293 39.1457 68.9884 38.9762C68.9884 38.9762 70.1752 38.8066 70.26 40.6716V41.5193C70.26 41.6041 70.1752 41.6888 70.0905 41.7736L67.9712 42.6213C67.8864 42.7909 67.6321 42.6213 67.6321 42.4518ZM67.8016 67.7136V66.6964C67.8016 66.6964 67.4625 64.4076 69.158 64.238C69.158 64.238 70.3448 64.0685 70.4295 65.9334V66.7812C70.4295 66.8659 70.3448 66.9507 70.26 67.0355L68.1407 67.8832C67.9712 68.0527 67.8016 67.8832 67.8016 67.7136ZM70.5991 75.8517C70.5991 75.9365 70.5143 76.0212 70.4295 76.106L68.3103 76.9537C68.1407 77.0385 67.9712 76.8689 67.9712 76.6994V75.6821C67.9712 75.6821 67.6321 73.3933 69.3275 73.2238C69.3275 73.2238 70.5143 73.0542 70.5991 74.9192V75.8517V75.8517ZM70.5991 58.1345C70.5991 58.2192 70.5143 58.304 70.4295 58.3888L68.3103 59.2365C68.1407 59.3213 67.9712 59.1517 67.9712 58.9822V57.9649C67.9712 57.9649 67.6321 55.6761 69.3275 55.5066C69.3275 55.5066 70.5143 55.337 70.5991 57.202V58.1345V58.1345Z" fill="#FAFAFA"/>
<path d="M71.6166 29.9907L65.6826 28.4648L66.3608 32.0252L71.6166 29.9907Z" fill="#FAFAFA"/>
<path d="M58.3922 34.7377L56.6967 26.1758L47.2871 23.8022V35.1616L53.4754 36.9418L58.4769 34.9921C58.4769 34.9073 58.4769 34.8225 58.3922 34.7377Z" fill="#FAFAFA"/>
</g>
<defs>
<filter id="filter0_d" x="15.5859" y="0.816406" width="124.828" height="152.294" filterUnits="userSpaceOnUse" color-interpolation-filters="sRGB">
<feFlood flood-opacity="0" result="BackgroundImageFix"/>
<feColorMatrix in="SourceAlpha" type="matrix" values="0 0 0 0 0 0 0 0 0 0 0 0 0 0 0 0 0 0 127 0" result="hardAlpha"/>
<feOffset dx="28" dy="24"/>
<feGaussianBlur stdDeviation="19"/>
<feComposite in2="hardAlpha" operator="out"/>
<feColorMatrix type="matrix" values="0 0 0 0 0.391667 0 0 0 0 0.391667 0 0 0 0 0.391667 0 0 0 0.3 0"/>
<feBlend mode="normal" in2="BackgroundImageFix" result="effect1_dropShadow"/>
<feBlend mode="normal" in="SourceGraphic" in2="effect1_dropShadow" result="shape"/>
</filter>
</defs>
</svg>
