<svg width="17" height="17" viewBox="0 0 17 17" fill="none" xmlns="http://www.w3.org/2000/svg">
<g clip-path="url(#clip0)">
<path d="M13.7211 2.354C12.2137 0.846642 10.1693 -0.000183121 8.03756 -0.000183105C5.90584 -0.00018309 3.86142 0.846642 2.35406 2.354C0.846703 3.86136 -0.000122054 5.90577 -0.00012207 8.0375C-0.000122086 10.1692 0.846703 12.2136 2.35406 13.721C3.10043 14.4674 3.9865 15.0594 4.96167 15.4634C5.93685 15.8673 6.98204 16.0752 8.03756 16.0752C9.09308 16.0752 10.1383 15.8673 11.1134 15.4634C12.0886 15.0594 12.9747 14.4674 13.7211 13.721C14.4674 12.9746 15.0595 12.0886 15.4634 11.1134C15.8673 10.1382 16.0752 9.09302 16.0752 8.0375C16.0752 6.98198 15.8673 5.93679 15.4634 4.96161C15.0595 3.98643 14.4674 3.10037 13.7211 2.354V2.354ZM8.03706 15.133C6.63281 15.133 5.2601 14.7166 4.09251 13.9364C2.92492 13.1563 2.0149 12.0474 1.47752 10.7501C0.940134 9.4527 0.79953 8.02512 1.07349 6.64786C1.34744 5.27059 2.02365 4.00549 3.0166 3.01254C4.00956 2.01959 5.27465 1.34338 6.65192 1.06942C8.02918 0.795469 9.45676 0.936073 10.7541 1.47345C12.0515 2.01084 13.1603 2.92086 13.9405 4.08845C14.7207 5.25604 15.1371 6.62875 15.1371 8.033C15.1371 8.96539 14.9534 9.88864 14.5966 10.7501C14.2398 11.6115 13.7168 12.3942 13.0575 13.0535C12.3982 13.7128 11.6155 14.2357 10.7541 14.5925C9.8927 14.9494 8.96945 15.133 8.03706 15.133V15.133Z" fill="#C3413D"/>
<path d="M11.8771 5.459C11.7888 5.3707 11.669 5.32111 11.5441 5.32111C11.4192 5.32111 11.2994 5.3707 11.2111 5.459L7.05208 9.61801L4.86308 7.429C4.81963 7.38405 4.76765 7.34822 4.71019 7.32356C4.65274 7.29891 4.59096 7.28594 4.52844 7.28542C4.46593 7.28489 4.40392 7.29681 4.34606 7.3205C4.28819 7.34418 4.23563 7.37913 4.19142 7.42334C4.14721 7.46755 4.11225 7.52013 4.08856 7.57799C4.06488 7.63585 4.05296 7.69784 4.05348 7.76036C4.05401 7.82288 4.06698 7.88467 4.09163 7.94212C4.11628 7.99958 4.15214 8.05154 4.19708 8.095L6.71909 10.617C6.80741 10.7053 6.92719 10.7549 7.05208 10.7549C7.17697 10.7549 7.29676 10.7053 7.38509 10.617L11.8771 6.125C11.9654 6.03667 12.015 5.9169 12.015 5.79201C12.015 5.66711 11.9654 5.54733 11.8771 5.459V5.459Z" fill="#C3413D"/>
</g>
<defs>
<clipPath id="clip0">
<rect width="16.075" height="16.075" fill="white"/>
</clipPath>
</defs>
</svg>
